<mxfile host="app.diagrams.net" modified="2020-10-23T11:33:21.762Z" agent="5.0 (Windows)" etag="ImzzTW6EHS9XZaV7cQWm" version="13.8.1" type="github">
  <diagram id="oDAFBVokc_pXZUpDWFh-" name="Page-1">
    <mxGraphModel dx="2048" dy="1297" grid="1" gridSize="10" guides="1" tooltips="1" connect="1" arrows="1" fold="1" page="1" pageScale="1" pageWidth="1500" pageHeight="1200" math="0" shadow="0">
      <root>
        <mxCell id="0" />
        <mxCell id="1" parent="0" />
        <mxCell id="7hMAUDIdM-frHvh-ObMO-21" value="" style="shape=ext;double=1;rounded=0;whiteSpace=wrap;html=1;fontSize=20;" vertex="1" parent="1">
          <mxGeometry x="75" y="1200" width="1350" height="203" as="geometry" />
        </mxCell>
        <mxCell id="QxO57SGYFA1e94odiCVw-58" value="" style="whiteSpace=wrap;html=1;fontSize=20;align=right;rounded=1;" parent="1" vertex="1">
          <mxGeometry x="190" y="310" width="1120" height="580" as="geometry" />
        </mxCell>
        <mxCell id="QxO57SGYFA1e94odiCVw-16" value="&lt;div style=&quot;font-size: 20px&quot; align=&quot;right&quot;&gt;&lt;b style=&quot;font-size: 20px&quot;&gt;CHAINS&lt;/b&gt;&lt;/div&gt;" style="verticalAlign=top;align=right;spacingTop=8;spacingLeft=2;spacingRight=12;shape=cube;size=10;direction=south;fontStyle=0;html=1;fontSize=20;rounded=1;" parent="1" vertex="1">
          <mxGeometry x="430" y="500" width="640" height="200" as="geometry" />
        </mxCell>
        <mxCell id="QxO57SGYFA1e94odiCVw-7" value="&lt;span style=&quot;font-size: 16px&quot;&gt;STARTING&lt;/span&gt;" style="shape=image;html=1;verticalAlign=top;verticalLabelPosition=bottom;labelBackgroundColor=#ffffff;imageAspect=0;aspect=fixed;image=https://cdn2.iconfinder.com/data/icons/essential-web-3/50/folder-open-storage-file-organize-128.png;fontSize=16;fontStyle=1;rounded=1;" parent="1" vertex="1">
          <mxGeometry x="242" y="579.5" width="80" height="80" as="geometry" />
        </mxCell>
        <mxCell id="QxO57SGYFA1e94odiCVw-10" value="&lt;div&gt;ORCA&lt;/div&gt;" style="shape=image;html=1;verticalAlign=top;verticalLabelPosition=bottom;labelBackgroundColor=#ffffff;imageAspect=0;aspect=fixed;image=https://cdn2.iconfinder.com/data/icons/essential-web-3/50/folder-open-storage-file-organize-128.png;fontSize=16;fontStyle=1;rounded=1;" parent="1" vertex="1">
          <mxGeometry x="610" y="750" width="80" height="80" as="geometry" />
        </mxCell>
        <mxCell id="QxO57SGYFA1e94odiCVw-11" value="QCHEM" style="shape=image;html=1;verticalAlign=top;verticalLabelPosition=bottom;labelBackgroundColor=#ffffff;imageAspect=0;aspect=fixed;image=https://cdn2.iconfinder.com/data/icons/essential-web-3/50/folder-open-storage-file-organize-128.png;fontSize=16;fontStyle=1;rounded=1;" parent="1" vertex="1">
          <mxGeometry x="710" y="338" width="80" height="80" as="geometry" />
        </mxCell>
        <mxCell id="QxO57SGYFA1e94odiCVw-12" value="&lt;div&gt;CONTROL&lt;/div&gt;" style="shape=image;html=1;verticalAlign=top;verticalLabelPosition=bottom;labelBackgroundColor=#ffffff;imageAspect=0;aspect=fixed;image=https://cdn2.iconfinder.com/data/icons/essential-web-3/50/folder-open-storage-file-organize-128.png;fontSize=16;fontStyle=1;rounded=1;" parent="1" vertex="1">
          <mxGeometry x="830" y="750" width="80" height="80" as="geometry" />
        </mxCell>
        <mxCell id="QxO57SGYFA1e94odiCVw-13" value="FIGURES" style="shape=image;html=1;verticalAlign=top;verticalLabelPosition=bottom;labelBackgroundColor=#ffffff;imageAspect=0;aspect=fixed;image=https://cdn2.iconfinder.com/data/icons/essential-web-3/50/folder-open-storage-file-organize-128.png;fontSize=16;fontStyle=1;rounded=1;" parent="1" vertex="1">
          <mxGeometry x="1189" y="575.5" width="80" height="80" as="geometry" />
        </mxCell>
        <mxCell id="QxO57SGYFA1e94odiCVw-34" value="&lt;b&gt;ORCA Job&lt;/b&gt; &lt;br&gt;(Geometry Optimization)" style="pointerEvents=1;shadow=0;dashed=0;html=1;strokeColor=none;fillColor=#505050;labelPosition=center;verticalLabelPosition=bottom;verticalAlign=top;outlineConnect=0;align=center;shape=mxgraph.office.servers.cluster_server;fontSize=20;aspect=fixed;rounded=1;" parent="1" vertex="1">
          <mxGeometry x="400" y="960" width="100" height="120.41" as="geometry" />
        </mxCell>
        <mxCell id="QxO57SGYFA1e94odiCVw-43" value="&lt;b&gt;Q-CHEM Job&lt;/b&gt; &lt;br&gt;(Molecule Properties)" style="pointerEvents=1;shadow=0;dashed=0;html=1;strokeColor=none;fillColor=#505050;labelPosition=center;verticalLabelPosition=bottom;verticalAlign=top;outlineConnect=0;align=center;shape=mxgraph.office.servers.cluster_server;fontSize=20;aspect=fixed;rounded=1;" parent="1" vertex="1">
          <mxGeometry x="700" y="60" width="100" height="120.41" as="geometry" />
        </mxCell>
        <mxCell id="QxO57SGYFA1e94odiCVw-48" value="&lt;b&gt;QOCT-RA Jobs&lt;/b&gt; &lt;br&gt;(Evaluation Step)" style="pointerEvents=1;shadow=0;dashed=0;html=1;strokeColor=none;fillColor=#505050;labelPosition=center;verticalLabelPosition=bottom;verticalAlign=top;outlineConnect=0;align=center;shape=mxgraph.office.servers.cluster_server;fontSize=20;aspect=fixed;rounded=1;" parent="1" vertex="1">
          <mxGeometry x="940" y="960" width="100" height="120.41" as="geometry" />
        </mxCell>
        <mxCell id="QxO57SGYFA1e94odiCVw-59" value="&lt;font style=&quot;font-size: 30px&quot;&gt;&lt;b&gt;CECIHOME&lt;/b&gt;&lt;/font&gt;&lt;br&gt;(common storage between clusters)" style="text;html=1;strokeColor=none;fillColor=none;align=center;verticalAlign=middle;whiteSpace=wrap;fontSize=20;rounded=1;" parent="1" vertex="1">
          <mxGeometry x="920" y="338" width="360" height="70" as="geometry" />
        </mxCell>
        <mxCell id="QxO57SGYFA1e94odiCVw-60" value="User" style="shape=umlActor;verticalLabelPosition=bottom;verticalAlign=top;html=1;outlineConnect=0;fontSize=20;align=center;rounded=1;" parent="1" vertex="1">
          <mxGeometry x="40" y="589.5" width="30" height="60" as="geometry" />
        </mxCell>
        <mxCell id="QxO57SGYFA1e94odiCVw-64" value="User" style="shape=umlActor;verticalLabelPosition=bottom;verticalAlign=top;html=1;outlineConnect=0;fontSize=20;align=center;rounded=1;" parent="1" vertex="1">
          <mxGeometry x="1430" y="585.5" width="30" height="60" as="geometry" />
        </mxCell>
        <mxCell id="QxO57SGYFA1e94odiCVw-25" value="ABIN LAUNCHER" style="swimlane;childLayout=stackLayout;horizontal=1;startSize=30;horizontalStack=0;fontSize=16;fontStyle=1;strokeWidth=2;resizeParent=0;resizeLast=1;shadow=0;dashed=0;align=center;rounded=1;" parent="1" vertex="1">
          <mxGeometry x="454" y="578" width="160" height="74" as="geometry" />
        </mxCell>
        <mxCell id="QxO57SGYFA1e94odiCVw-26" value="+ Creates input files&#xa;+ Submits jobs" style="align=left;strokeColor=none;fillColor=none;spacingLeft=4;fontSize=14;verticalAlign=top;resizable=0;rotatable=0;part=1;rounded=1;" parent="QxO57SGYFA1e94odiCVw-25" vertex="1">
          <mxGeometry y="30" width="160" height="44" as="geometry" />
        </mxCell>
        <mxCell id="QxO57SGYFA1e94odiCVw-29" value="RESULTS TREATMENT" style="swimlane;childLayout=stackLayout;horizontal=1;startSize=30;horizontalStack=0;fontSize=16;fontStyle=1;strokeWidth=2;resizeParent=0;resizeLast=1;shadow=0;dashed=0;align=center;rounded=1;" parent="1" vertex="1">
          <mxGeometry x="849" y="577.995" width="191" height="74.01" as="geometry" />
        </mxCell>
        <mxCell id="QxO57SGYFA1e94odiCVw-30" value="+ Creates tables&#xa;+ Creates graphs" style="align=left;strokeColor=none;fillColor=none;spacingLeft=4;fontSize=14;verticalAlign=top;resizable=0;rotatable=0;part=1;rounded=1;" parent="QxO57SGYFA1e94odiCVw-29" vertex="1">
          <mxGeometry y="30" width="191" height="44.010000000000005" as="geometry" />
        </mxCell>
        <mxCell id="eIyXIAfSM2_SocFCffGe-3" value="" style="endArrow=classic;html=1;fontSize=20;strokeColor=#CC0000;" parent="1" source="QxO57SGYFA1e94odiCVw-60" target="QxO57SGYFA1e94odiCVw-7" edge="1">
          <mxGeometry relative="1" as="geometry">
            <mxPoint x="70" y="734" as="sourcePoint" />
            <mxPoint x="170" y="734" as="targetPoint" />
          </mxGeometry>
        </mxCell>
        <mxCell id="eIyXIAfSM2_SocFCffGe-4" value="&lt;div style=&quot;font-size: 18px&quot;&gt;&lt;b&gt;&lt;font style=&quot;font-size: 18px&quot;&gt;1&lt;/font&gt;&lt;/b&gt;&lt;/div&gt;" style="edgeLabel;resizable=0;html=1;align=center;verticalAlign=middle;rounded=1;" parent="eIyXIAfSM2_SocFCffGe-3" connectable="0" vertex="1">
          <mxGeometry relative="1" as="geometry" />
        </mxCell>
        <mxCell id="eIyXIAfSM2_SocFCffGe-5" value="" style="endArrow=classic;html=1;fontSize=20;entryX=0;entryY=0.25;entryDx=0;entryDy=0;strokeColor=#CC0000;exitX=1;exitY=0.5;exitDx=0;exitDy=0;" parent="1" target="QxO57SGYFA1e94odiCVw-26" edge="1" source="QxO57SGYFA1e94odiCVw-7">
          <mxGeometry relative="1" as="geometry">
            <mxPoint x="298" y="620" as="sourcePoint" />
            <mxPoint x="400" y="740" as="targetPoint" />
          </mxGeometry>
        </mxCell>
        <mxCell id="eIyXIAfSM2_SocFCffGe-6" value="&lt;div style=&quot;font-size: 18px&quot;&gt;&lt;b&gt;2&lt;/b&gt;&lt;/div&gt;" style="edgeLabel;resizable=0;html=1;align=center;verticalAlign=middle;fontSize=18;rounded=1;" parent="eIyXIAfSM2_SocFCffGe-5" connectable="0" vertex="1">
          <mxGeometry relative="1" as="geometry" />
        </mxCell>
        <mxCell id="eIyXIAfSM2_SocFCffGe-8" value="" style="endArrow=classic;html=1;fontSize=20;jumpStyle=none;edgeStyle=orthogonalEdgeStyle;strokeColor=#6600CC;dashed=1;exitX=0.25;exitY=1;exitDx=0;exitDy=0;" parent="1" target="QxO57SGYFA1e94odiCVw-34" edge="1" source="QxO57SGYFA1e94odiCVw-26">
          <mxGeometry relative="1" as="geometry">
            <mxPoint x="510" y="650" as="sourcePoint" />
            <mxPoint x="470" y="620.25" as="targetPoint" />
            <Array as="points">
              <mxPoint x="494" y="780" />
              <mxPoint x="350" y="780" />
              <mxPoint x="350" y="1020" />
            </Array>
          </mxGeometry>
        </mxCell>
        <mxCell id="eIyXIAfSM2_SocFCffGe-9" value="&lt;b&gt;3&lt;/b&gt;" style="edgeLabel;resizable=0;html=1;align=center;verticalAlign=middle;fontSize=18;rounded=1;" parent="eIyXIAfSM2_SocFCffGe-8" connectable="0" vertex="1">
          <mxGeometry relative="1" as="geometry">
            <mxPoint y="39.71" as="offset" />
          </mxGeometry>
        </mxCell>
        <mxCell id="eIyXIAfSM2_SocFCffGe-10" value="" style="endArrow=classic;html=1;fontSize=20;jumpStyle=none;entryX=0.003;entryY=0.543;entryDx=0;entryDy=0;entryPerimeter=0;edgeStyle=orthogonalEdgeStyle;strokeColor=#0000CC;dashed=1;dashPattern=1 1;" parent="1" source="QxO57SGYFA1e94odiCVw-34" target="QxO57SGYFA1e94odiCVw-10" edge="1">
          <mxGeometry relative="1" as="geometry">
            <mxPoint x="590" y="720" as="sourcePoint" />
            <mxPoint x="530" y="1030" as="targetPoint" />
          </mxGeometry>
        </mxCell>
        <mxCell id="eIyXIAfSM2_SocFCffGe-11" value="&lt;b&gt;4&lt;/b&gt;" style="edgeLabel;resizable=0;html=1;align=center;verticalAlign=middle;fontSize=18;rounded=1;" parent="eIyXIAfSM2_SocFCffGe-10" connectable="0" vertex="1">
          <mxGeometry relative="1" as="geometry" />
        </mxCell>
        <mxCell id="eIyXIAfSM2_SocFCffGe-14" value="" style="endArrow=classic;html=1;fontSize=20;jumpStyle=none;entryX=0.668;entryY=0.972;entryDx=0;entryDy=0;entryPerimeter=0;edgeStyle=orthogonalEdgeStyle;exitX=0.5;exitY=0;exitDx=0;exitDy=0;strokeColor=#CC0000;" parent="1" source="QxO57SGYFA1e94odiCVw-10" target="QxO57SGYFA1e94odiCVw-26" edge="1">
          <mxGeometry relative="1" as="geometry">
            <mxPoint x="510" y="1030.1999999999998" as="sourcePoint" />
            <mxPoint x="620.2399999999998" y="803.44" as="targetPoint" />
            <Array as="points">
              <mxPoint x="650" y="720" />
              <mxPoint x="561" y="720" />
            </Array>
          </mxGeometry>
        </mxCell>
        <mxCell id="eIyXIAfSM2_SocFCffGe-15" value="&lt;b&gt;5&lt;/b&gt;" style="edgeLabel;resizable=0;html=1;align=center;verticalAlign=middle;fontSize=18;rounded=1;" parent="eIyXIAfSM2_SocFCffGe-14" connectable="0" vertex="1">
          <mxGeometry relative="1" as="geometry">
            <mxPoint x="17" as="offset" />
          </mxGeometry>
        </mxCell>
        <mxCell id="eIyXIAfSM2_SocFCffGe-18" value="" style="endArrow=classic;html=1;fontSize=20;edgeStyle=orthogonalEdgeStyle;entryX=1;entryY=0.5;entryDx=0;entryDy=0;strokeColor=#0000CC;dashed=1;dashPattern=1 1;" parent="1" source="QxO57SGYFA1e94odiCVw-43" target="QxO57SGYFA1e94odiCVw-11" edge="1">
          <mxGeometry relative="1" as="geometry">
            <mxPoint x="650" y="260" as="sourcePoint" />
            <mxPoint x="760" y="338" as="targetPoint" />
            <Array as="points">
              <mxPoint x="880" y="120" />
              <mxPoint x="880" y="378" />
            </Array>
          </mxGeometry>
        </mxCell>
        <mxCell id="eIyXIAfSM2_SocFCffGe-19" value="&lt;b&gt;7&lt;/b&gt;" style="edgeLabel;resizable=0;html=1;align=center;verticalAlign=middle;fontSize=18;rounded=1;" parent="eIyXIAfSM2_SocFCffGe-18" connectable="0" vertex="1">
          <mxGeometry relative="1" as="geometry">
            <mxPoint y="-57.2" as="offset" />
          </mxGeometry>
        </mxCell>
        <mxCell id="eIyXIAfSM2_SocFCffGe-20" value="" style="endArrow=classic;html=1;fontSize=20;entryX=0.5;entryY=0;entryDx=0;entryDy=0;exitX=0;exitY=0.5;exitDx=0;exitDy=0;edgeStyle=orthogonalEdgeStyle;strokeColor=#CC0000;" parent="1" source="QxO57SGYFA1e94odiCVw-11" target="QxO57SGYFA1e94odiCVw-27" edge="1">
          <mxGeometry relative="1" as="geometry">
            <mxPoint x="658" y="470" as="sourcePoint" />
            <mxPoint x="830" y="470.25" as="targetPoint" />
            <Array as="points">
              <mxPoint x="680" y="378" />
              <mxPoint x="680" y="480" />
              <mxPoint x="730" y="480" />
            </Array>
          </mxGeometry>
        </mxCell>
        <mxCell id="eIyXIAfSM2_SocFCffGe-21" value="&lt;div style=&quot;font-size: 18px&quot;&gt;&lt;b&gt;8&lt;/b&gt;&lt;/div&gt;" style="edgeLabel;resizable=0;html=1;align=center;verticalAlign=middle;fontSize=18;rounded=1;" parent="eIyXIAfSM2_SocFCffGe-20" connectable="0" vertex="1">
          <mxGeometry relative="1" as="geometry">
            <mxPoint x="11" as="offset" />
          </mxGeometry>
        </mxCell>
        <mxCell id="eIyXIAfSM2_SocFCffGe-22" value="" style="endArrow=classic;html=1;fontSize=20;exitX=0.5;exitY=1;exitDx=0;exitDy=0;edgeStyle=orthogonalEdgeStyle;strokeColor=#6600CC;dashed=1;" parent="1" source="QxO57SGYFA1e94odiCVw-27" target="QxO57SGYFA1e94odiCVw-48" edge="1">
          <mxGeometry relative="1" as="geometry">
            <mxPoint x="750" y="878.4100000000001" as="sourcePoint" />
            <mxPoint x="790" y="1080.41" as="targetPoint" />
            <Array as="points">
              <mxPoint x="730" y="1020" />
            </Array>
          </mxGeometry>
        </mxCell>
        <mxCell id="eIyXIAfSM2_SocFCffGe-23" value="&lt;b&gt;9&lt;/b&gt;" style="edgeLabel;resizable=0;html=1;align=center;verticalAlign=middle;fontSize=18;rounded=1;" parent="eIyXIAfSM2_SocFCffGe-22" connectable="0" vertex="1">
          <mxGeometry relative="1" as="geometry">
            <mxPoint as="offset" />
          </mxGeometry>
        </mxCell>
        <mxCell id="eIyXIAfSM2_SocFCffGe-24" value="" style="endArrow=classic;html=1;fontSize=20;entryX=1;entryY=0.5;entryDx=0;entryDy=0;edgeStyle=orthogonalEdgeStyle;strokeColor=#0000CC;dashed=1;dashPattern=1 1;" parent="1" source="QxO57SGYFA1e94odiCVw-48" target="QxO57SGYFA1e94odiCVw-12" edge="1">
          <mxGeometry relative="1" as="geometry">
            <mxPoint x="720" y="388" as="sourcePoint" />
            <mxPoint x="760" y="590" as="targetPoint" />
            <Array as="points">
              <mxPoint x="1100" y="1020" />
              <mxPoint x="1100" y="790" />
            </Array>
          </mxGeometry>
        </mxCell>
        <mxCell id="eIyXIAfSM2_SocFCffGe-25" value="&lt;b&gt;10&lt;/b&gt;" style="edgeLabel;resizable=0;html=1;align=center;verticalAlign=middle;fontSize=18;rounded=1;" parent="eIyXIAfSM2_SocFCffGe-24" connectable="0" vertex="1">
          <mxGeometry relative="1" as="geometry">
            <mxPoint y="9.8" as="offset" />
          </mxGeometry>
        </mxCell>
        <mxCell id="eIyXIAfSM2_SocFCffGe-26" value="" style="endArrow=classic;html=1;fontSize=20;jumpStyle=none;edgeStyle=orthogonalEdgeStyle;strokeColor=#CC0000;entryX=0.5;entryY=1;entryDx=0;entryDy=0;" parent="1" source="QxO57SGYFA1e94odiCVw-12" target="QxO57SGYFA1e94odiCVw-30" edge="1">
          <mxGeometry relative="1" as="geometry">
            <mxPoint x="873.12" y="750" as="sourcePoint" />
            <mxPoint x="949" y="654" as="targetPoint" />
            <Array as="points">
              <mxPoint x="870" y="720" />
              <mxPoint x="945" y="720" />
            </Array>
          </mxGeometry>
        </mxCell>
        <mxCell id="eIyXIAfSM2_SocFCffGe-27" value="&lt;div&gt;&lt;b&gt;11&lt;/b&gt;&lt;/div&gt;" style="edgeLabel;resizable=0;html=1;align=center;verticalAlign=middle;fontSize=18;rounded=1;" parent="eIyXIAfSM2_SocFCffGe-26" connectable="0" vertex="1">
          <mxGeometry relative="1" as="geometry">
            <mxPoint x="-20" as="offset" />
          </mxGeometry>
        </mxCell>
        <mxCell id="eIyXIAfSM2_SocFCffGe-28" value="" style="endArrow=classic;html=1;fontSize=20;exitX=1;exitY=0.5;exitDx=0;exitDy=0;strokeColor=#0000CC;dashed=1;dashPattern=1 1;" parent="1" source="QxO57SGYFA1e94odiCVw-29" target="QxO57SGYFA1e94odiCVw-13" edge="1">
          <mxGeometry relative="1" as="geometry">
            <mxPoint x="1032" y="690" as="sourcePoint" />
            <mxPoint x="1204" y="690.25" as="targetPoint" />
          </mxGeometry>
        </mxCell>
        <mxCell id="eIyXIAfSM2_SocFCffGe-29" value="&lt;b&gt;12&lt;/b&gt;" style="edgeLabel;resizable=0;html=1;align=center;verticalAlign=middle;fontSize=18;rounded=1;" parent="eIyXIAfSM2_SocFCffGe-28" connectable="0" vertex="1">
          <mxGeometry relative="1" as="geometry" />
        </mxCell>
        <mxCell id="eIyXIAfSM2_SocFCffGe-30" value="" style="endArrow=classic;html=1;fontSize=20;exitX=1;exitY=0.5;exitDx=0;exitDy=0;strokeColor=#0000CC;dashed=1;dashPattern=1 1;" parent="1" source="QxO57SGYFA1e94odiCVw-13" target="QxO57SGYFA1e94odiCVw-64" edge="1">
          <mxGeometry relative="1" as="geometry">
            <mxPoint x="1280" y="700.0000000000002" as="sourcePoint" />
            <mxPoint x="1454" y="700" as="targetPoint" />
          </mxGeometry>
        </mxCell>
        <mxCell id="eIyXIAfSM2_SocFCffGe-31" value="&lt;b&gt;13&lt;/b&gt;" style="edgeLabel;resizable=0;html=1;align=center;verticalAlign=middle;fontSize=18;rounded=1;" parent="eIyXIAfSM2_SocFCffGe-30" connectable="0" vertex="1">
          <mxGeometry relative="1" as="geometry" />
        </mxCell>
        <mxCell id="eIyXIAfSM2_SocFCffGe-32" value="" style="endArrow=classic;html=1;fontSize=20;jumpStyle=none;exitX=0.425;exitY=0;exitDx=0;exitDy=0;edgeStyle=orthogonalEdgeStyle;strokeColor=#6600CC;dashed=1;exitPerimeter=0;" parent="1" edge="1" source="QxO57SGYFA1e94odiCVw-25">
          <mxGeometry relative="1" as="geometry">
            <mxPoint x="550" y="580" as="sourcePoint" />
            <mxPoint x="700" y="121.05882352941171" as="targetPoint" />
            <Array as="points">
              <mxPoint x="522" y="121" />
            </Array>
          </mxGeometry>
        </mxCell>
        <mxCell id="eIyXIAfSM2_SocFCffGe-33" value="&lt;b&gt;6&lt;/b&gt;" style="edgeLabel;resizable=0;html=1;align=center;verticalAlign=middle;fontSize=18;rounded=1;" parent="eIyXIAfSM2_SocFCffGe-32" connectable="0" vertex="1">
          <mxGeometry relative="1" as="geometry">
            <mxPoint y="103" as="offset" />
          </mxGeometry>
        </mxCell>
        <mxCell id="7hMAUDIdM-frHvh-ObMO-1" value="Folder" style="shape=image;html=1;verticalAlign=top;verticalLabelPosition=bottom;labelBackgroundColor=#ffffff;imageAspect=0;aspect=fixed;image=https://cdn2.iconfinder.com/data/icons/essential-web-3/50/folder-open-storage-file-organize-128.png;fontSize=16;fontStyle=1;rounded=1;" vertex="1" parent="1">
          <mxGeometry x="123" y="1287" width="70" height="70" as="geometry" />
        </mxCell>
        <mxCell id="7hMAUDIdM-frHvh-ObMO-2" value="&lt;b&gt;&lt;font style=&quot;font-size: 16px&quot;&gt;Cluster&lt;/font&gt;&lt;/b&gt;" style="pointerEvents=1;shadow=0;dashed=0;html=1;strokeColor=none;fillColor=#505050;labelPosition=center;verticalLabelPosition=bottom;verticalAlign=top;outlineConnect=0;align=center;shape=mxgraph.office.servers.cluster_server;fontSize=20;aspect=fixed;rounded=1;" vertex="1" parent="1">
          <mxGeometry x="320" y="1287" width="58.13" height="70" as="geometry" />
        </mxCell>
        <mxCell id="7hMAUDIdM-frHvh-ObMO-10" value="" style="group" vertex="1" connectable="0" parent="1">
          <mxGeometry x="498" y="1286.5" width="160" height="110.5" as="geometry" />
        </mxCell>
        <mxCell id="7hMAUDIdM-frHvh-ObMO-3" value="" style="swimlane;childLayout=stackLayout;horizontal=1;startSize=30;horizontalStack=0;fontSize=14;fontStyle=1;strokeWidth=2;resizeParent=0;resizeLast=1;shadow=0;dashed=0;align=center;rounded=1;aspect=fixed;container=0;" vertex="1" parent="7hMAUDIdM-frHvh-ObMO-10">
          <mxGeometry width="160" height="71" as="geometry" />
        </mxCell>
        <mxCell id="7hMAUDIdM-frHvh-ObMO-9" value="CHAINS scripts" style="text;strokeColor=none;fillColor=none;html=1;fontSize=16;fontStyle=1;verticalAlign=middle;align=center;container=0;" vertex="1" parent="7hMAUDIdM-frHvh-ObMO-10">
          <mxGeometry x="10" y="70.5" width="140" height="40" as="geometry" />
        </mxCell>
        <mxCell id="7hMAUDIdM-frHvh-ObMO-16" value="" style="group" vertex="1" connectable="0" parent="1">
          <mxGeometry x="778" y="1320" width="100" height="77" as="geometry" />
        </mxCell>
        <mxCell id="7hMAUDIdM-frHvh-ObMO-5" value="" style="endArrow=classic;html=1;dashed=1;dashPattern=1 1;strokeColor=#CC0000;" edge="1" parent="7hMAUDIdM-frHvh-ObMO-16">
          <mxGeometry width="50" height="50" relative="1" as="geometry">
            <mxPoint x="6" as="sourcePoint" />
            <mxPoint x="96" as="targetPoint" />
          </mxGeometry>
        </mxCell>
        <mxCell id="7hMAUDIdM-frHvh-ObMO-11" value="&lt;span&gt;&lt;font style=&quot;font-size: 16px&quot;&gt;&lt;font style=&quot;font-size: 16px&quot;&gt;Input&lt;/font&gt; files&lt;br&gt;&lt;/font&gt;&lt;/span&gt;" style="text;strokeColor=none;fillColor=none;html=1;fontSize=24;fontStyle=1;verticalAlign=middle;align=center;" vertex="1" parent="7hMAUDIdM-frHvh-ObMO-16">
          <mxGeometry y="37" width="100" height="40" as="geometry" />
        </mxCell>
        <mxCell id="7hMAUDIdM-frHvh-ObMO-17" value="" style="group" vertex="1" connectable="0" parent="1">
          <mxGeometry x="999" y="1320.5" width="100" height="76.5" as="geometry" />
        </mxCell>
        <mxCell id="7hMAUDIdM-frHvh-ObMO-6" value="" style="endArrow=classic;html=1;dashed=1;dashPattern=1 1;strokeColor=#0000CC;" edge="1" parent="7hMAUDIdM-frHvh-ObMO-17">
          <mxGeometry width="50" height="50" relative="1" as="geometry">
            <mxPoint x="5" as="sourcePoint" />
            <mxPoint x="95" as="targetPoint" />
          </mxGeometry>
        </mxCell>
        <mxCell id="7hMAUDIdM-frHvh-ObMO-12" value="&lt;span&gt;&lt;font style=&quot;font-size: 16px&quot;&gt;&lt;font style=&quot;font-size: 16px&quot;&gt;Output&lt;/font&gt; files&lt;br&gt;&lt;/font&gt;&lt;/span&gt;" style="text;strokeColor=none;fillColor=none;html=1;fontSize=24;fontStyle=1;verticalAlign=middle;align=center;" vertex="1" parent="7hMAUDIdM-frHvh-ObMO-17">
          <mxGeometry y="36.5" width="100" height="40" as="geometry" />
        </mxCell>
        <mxCell id="7hMAUDIdM-frHvh-ObMO-18" value="" style="group" vertex="1" connectable="0" parent="1">
          <mxGeometry x="1159" y="1320.5" width="240" height="76.5" as="geometry" />
        </mxCell>
        <mxCell id="7hMAUDIdM-frHvh-ObMO-7" value="" style="endArrow=classic;html=1;dashed=1;strokeColor=#6600CC;" edge="1" parent="7hMAUDIdM-frHvh-ObMO-18">
          <mxGeometry width="50" height="50" relative="1" as="geometry">
            <mxPoint x="75" as="sourcePoint" />
            <mxPoint x="165" as="targetPoint" />
          </mxGeometry>
        </mxCell>
        <mxCell id="7hMAUDIdM-frHvh-ObMO-14" value="&lt;font style=&quot;font-size: 16px&quot;&gt;&lt;span&gt;&lt;font style=&quot;font-size: 16px&quot;&gt;&lt;font style=&quot;font-size: 16px&quot;&gt;Input&lt;/font&gt; files&lt;/font&gt;&lt;/span&gt; created by CHAINS&lt;br&gt;&lt;/font&gt;" style="text;strokeColor=none;fillColor=none;html=1;fontSize=24;fontStyle=1;verticalAlign=middle;align=center;" vertex="1" parent="7hMAUDIdM-frHvh-ObMO-18">
          <mxGeometry y="36.5" width="240" height="40" as="geometry" />
        </mxCell>
        <mxCell id="QxO57SGYFA1e94odiCVw-27" value="CONTROL LAUNCHER" style="swimlane;childLayout=stackLayout;horizontal=1;startSize=30;horizontalStack=0;fontSize=16;fontStyle=1;strokeWidth=2;resizeParent=0;resizeLast=1;shadow=0;dashed=0;align=center;rounded=1;" parent="1" vertex="1">
          <mxGeometry x="640" y="578" width="180" height="74" as="geometry" />
        </mxCell>
        <mxCell id="QxO57SGYFA1e94odiCVw-28" value="+ Creates input files&#xa;+ Submits jobs" style="align=left;strokeColor=none;fillColor=none;spacingLeft=4;fontSize=14;verticalAlign=top;resizable=0;rotatable=0;part=1;rounded=1;" parent="QxO57SGYFA1e94odiCVw-27" vertex="1">
          <mxGeometry y="30" width="180" height="44" as="geometry" />
        </mxCell>
        <mxCell id="7hMAUDIdM-frHvh-ObMO-19" value="Legend" style="text;strokeColor=none;fillColor=none;html=1;fontSize=20;fontStyle=1;verticalAlign=middle;align=center;sketch=1;" vertex="1" parent="1">
          <mxGeometry x="700" y="1210" width="100" height="40" as="geometry" />
        </mxCell>
      </root>
    </mxGraphModel>
  </diagram>
</mxfile>
